<svg xmlns="http://www.w3.org/2000/svg" width="47" height="54.06" viewBox="0 0 47 54.06">
  <metadata><?xpacket begin="﻿" id="W5M0MpCehiHzreSzNTczkc9d"?>
<x:xmpmeta xmlns:x="adobe:ns:meta/" x:xmptk="Adobe XMP Core 5.6-c138 79.159824, 2016/09/14-01:09:01        ">
   <rdf:RDF xmlns:rdf="http://www.w3.org/1999/02/22-rdf-syntax-ns#">
      <rdf:Description rdf:about=""/>
   </rdf:RDF>
</x:xmpmeta>
                                                                                                    
                                                                                                    
                                                                                                    
                                                                                                    
                                                                                                    
                                                                                                    
                                                                                                    
                                                                                                    
                                                                                                    
                                                                                                    
                                                                                                    
                                                                                                    
                                                                                                    
                                                                                                    
                                                                                                    
                                                                                                    
                                                                                                    
                                                                                                    
                                                                                                    
                                                                                                    
                           
<?xpacket end="w"?></metadata>
<defs>
    <style>
      .cls-1 {
        fill: #1d1d1b;
        fill-rule: evenodd;
      }
    </style>
  </defs>
  <path id="ico-people_copie" data-name="ico-people copie" class="cls-1" d="M841.548,1250.77a3.726,3.726,0,0,1-3.736,3.74h-1.154v12.51h-1.834v-14.28h2.988a1.969,1.969,0,0,0,1.97-1.97v-16.38a1.969,1.969,0,0,0-1.97-1.97h-12.5a1.969,1.969,0,0,0-1.97,1.97v16.38a1.969,1.969,0,0,0,1.97,1.97H828.1v14.28h-1.834v-12.44h-1.019a3.727,3.727,0,0,1-3.736-3.74v-16.45a3.726,3.726,0,0,1,3.736-3.74h12.5a3.727,3.727,0,0,1,3.735,3.74v16.38h0.068ZM824.3,1220.19a7.2,7.2,0,1,1,7.2,7.2A7.21,7.21,0,0,1,824.3,1220.19Zm1.834,0a5.434,5.434,0,1,0,5.434-5.44A5.446,5.446,0,0,0,826.13,1220.19Zm-6.928,46.83h1.834v-10.4h0.815v-1.84H819.2v12.24Zm-9.441-13.73v-13.87a1.507,1.507,0,0,1,1.494-1.49h8.219v-1.84h-8.151a3.337,3.337,0,0,0-3.328,3.33v13.87a3.337,3.337,0,0,0,3.328,3.33H812v10.4h1.834v-12.24h-2.513A1.523,1.523,0,0,1,809.761,1253.29Zm0.543-25.9a6.249,6.249,0,1,1,6.249,6.25A6.23,6.23,0,0,1,810.3,1227.39Zm1.834,0a4.415,4.415,0,1,0,4.415-4.42A4.408,4.408,0,0,0,812.138,1227.39Zm29,29.23h0.815v10.4h1.834v-12.24h-2.649v1.84Zm10.528-20.53h-8.151v1.84h8.218a1.507,1.507,0,0,1,1.5,1.49v13.87a1.507,1.507,0,0,1-1.5,1.49h-2.581v12.24h1.834v-10.4h0.68a3.338,3.338,0,0,0,3.328-3.33v-13.87A3.338,3.338,0,0,0,851.669,1236.09Zm-11.479-8.7a6.249,6.249,0,1,1,6.249,6.25A6.23,6.23,0,0,1,840.19,1227.39Zm1.766,0a4.415,4.415,0,1,0,4.415-4.42A4.407,4.407,0,0,0,841.956,1227.39Z" transform="translate(-808 -1212.97)"/>
</svg>
