<svg id="user" xmlns="http://www.w3.org/2000/svg" width="30" height="49" viewBox="0 0 30 49">
  <metadata><?xpacket begin="﻿" id="W5M0MpCehiHzreSzNTczkc9d"?>
<x:xmpmeta xmlns:x="adobe:ns:meta/" x:xmptk="Adobe XMP Core 5.6-c138 79.159824, 2016/09/14-01:09:01        ">
   <rdf:RDF xmlns:rdf="http://www.w3.org/1999/02/22-rdf-syntax-ns#">
      <rdf:Description rdf:about=""/>
   </rdf:RDF>
</x:xmpmeta>
                                                                                                    
                                                                                                    
                                                                                                    
                                                                                                    
                                                                                                    
                                                                                                    
                                                                                                    
                                                                                                    
                                                                                                    
                                                                                                    
                                                                                                    
                                                                                                    
                                                                                                    
                                                                                                    
                                                                                                    
                                                                                                    
                                                                                                    
                                                                                                    
                                                                                                    
                                                                                                    
                           
<?xpacket end="w"?></metadata>
<defs>
    <style>
      .cls-1 {
        fill: #fff;
      }

      .cls-1, .cls-3 {
        fill-rule: evenodd;
      }

      .cls-2 {
        fill: #f9cccb;
      }

      .cls-3 {
        fill: #1d1d1b;
      }
    </style>
  </defs>
  <path id="ico-person" class="cls-1" d="M1188.58,965.463v-1.555a10.456,10.456,0,0,0,6.02-9.471v-4.395a8.587,8.587,0,0,0,3.91-7.2v-0.084a0.931,0.931,0,0,0-.37-0.737,0.918,0.918,0,0,0-1.64.572v0.047a1.7,1.7,0,0,1-.08.594,1.257,1.257,0,0,1-.3.44,1.132,1.132,0,0,1-.56.248,0.983,0.983,0,0,1-.16.012,1.08,1.08,0,0,1-.84-0.4,0.047,0.047,0,0,0-.01,0v0s0,0-.01,0a2.593,2.593,0,0,1-.19-0.328v-0.038a1.132,1.132,0,0,1-.04-0.173,10.365,10.365,0,0,0-10.1-7.979h-0.1a10.424,10.424,0,0,0-10.38,10.439v9a10.457,10.457,0,0,0,5.67,9.3v1.724a14.992,14.992,0,0,0-10.4,13.61v0.7a0.916,0.916,0,0,0,.57.85,17.583,17.583,0,0,0,6.86,1.377h16.02a17.66,17.66,0,0,0,5.93-1.016,0.929,0.929,0,0,0,.62-0.86v-0.353A15.006,15.006,0,0,0,1188.58,965.463Z" transform="translate(-1169 -935)"/>
  <rect id="pink_copie_3" data-name="pink copie 3" class="cls-2" y="43" width="30" height="6" rx="3" ry="3"/>
  <path id="ico-person_copie" data-name="ico-person copie" class="cls-3" d="M1188.58,965.463v-1.555a10.456,10.456,0,0,0,6.02-9.471v-4.395a8.587,8.587,0,0,0,3.91-7.2v-0.084a0.931,0.931,0,0,0-.37-0.737,0.918,0.918,0,0,0-1.64.572v0.047a1.7,1.7,0,0,1-.08.594,1.257,1.257,0,0,1-.3.44,1.132,1.132,0,0,1-.56.248,0.983,0.983,0,0,1-.16.012,1.08,1.08,0,0,1-.84-0.4,0.047,0.047,0,0,0-.01,0v0s0,0-.01,0a2.593,2.593,0,0,1-.19-0.328v-0.038a1.132,1.132,0,0,1-.04-0.173,10.365,10.365,0,0,0-10.1-7.979h-0.1a10.424,10.424,0,0,0-10.38,10.439v9a10.457,10.457,0,0,0,5.67,9.3v1.724a14.992,14.992,0,0,0-10.4,13.61v0.7a0.916,0.916,0,0,0,.57.85,17.583,17.583,0,0,0,6.86,1.377h16.02a17.66,17.66,0,0,0,5.93-1.016,0.929,0.929,0,0,0,.62-0.86v-0.353A15.006,15.006,0,0,0,1188.58,965.463Zm-4.47-28.617h0.1a8.53,8.53,0,0,1,8.44,7.175,3.373,3.373,0,0,0,.68,1.042,3.017,3.017,0,0,0,2,.759,3.083,3.083,0,0,0,.68-0.079,6.7,6.7,0,0,1-6.04,3.833h-7.21a6.729,6.729,0,0,1-6.7-6.736v-0.083a0.818,0.818,0,0,0-.01-0.158A8.56,8.56,0,0,1,1184.11,936.846Zm-8.55,17.592v-6.991a8.535,8.535,0,0,0,7.2,3.976h7.21a8.349,8.349,0,0,0,2.79-.477v3.492a8.579,8.579,0,0,1-8.55,8.594h-0.1A8.585,8.585,0,0,1,1175.56,954.438Zm11.18,10.127v1.124a2.737,2.737,0,0,1-2.73,2.745h-0.04a2.743,2.743,0,0,1-2.73-2.745v-1.22a10.288,10.288,0,0,0,2.87.409h0.1A10.3,10.3,0,0,0,1186.74,964.565Zm5.71,15.589h-16.02a15.764,15.764,0,0,1-5.59-1.011v-0.009a13.132,13.132,0,0,1,8.86-11.826,4.57,4.57,0,0,0,4.27,2.972h0.04a4.594,4.594,0,0,0,4.28-2.971,13.151,13.151,0,0,1,8.87,12.138A15.9,15.9,0,0,1,1192.45,980.154Zm-8.1-2.8a0.905,0.905,0,0,0-.64.27,0.925,0.925,0,0,0,0,1.306,0.905,0.905,0,0,0,1.29,0,0.925,0.925,0,0,0,0-1.306A0.911,0.911,0,0,0,1184.35,977.352Zm0-2.9a0.9,0.9,0,0,0-.64.271,0.923,0.923,0,0,0,0,1.3,0.915,0.915,0,0,0,1.56-.653,0.936,0.936,0,0,0-.27-0.652A0.908,0.908,0,0,0,1184.35,974.449Zm0-2.93a0.905,0.905,0,0,0-.64.27,0.925,0.925,0,0,0,0,1.306,0.915,0.915,0,0,0,1.56-.653,0.938,0.938,0,0,0-.27-0.653A0.911,0.911,0,0,0,1184.35,971.519Z" transform="translate(-1169 -935)"/>
</svg>
