<svg xmlns="http://www.w3.org/2000/svg" width="49.84" height="57" viewBox="0 0 49.84 57">
  <metadata><?xpacket begin="﻿" id="W5M0MpCehiHzreSzNTczkc9d"?>
<x:xmpmeta xmlns:x="adobe:ns:meta/" x:xmptk="Adobe XMP Core 5.6-c138 79.159824, 2016/09/14-01:09:01        ">
   <rdf:RDF xmlns:rdf="http://www.w3.org/1999/02/22-rdf-syntax-ns#">
      <rdf:Description rdf:about=""/>
   </rdf:RDF>
</x:xmpmeta>
                                                                                                    
                                                                                                    
                                                                                                    
                                                                                                    
                                                                                                    
                                                                                                    
                                                                                                    
                                                                                                    
                                                                                                    
                                                                                                    
                                                                                                    
                                                                                                    
                                                                                                    
                                                                                                    
                                                                                                    
                                                                                                    
                                                                                                    
                                                                                                    
                                                                                                    
                                                                                                    
                           
<?xpacket end="w"?></metadata>
<defs>
    <style>
      .cls-1 {
        fill: #1d1d1b;
        fill-rule: evenodd;
      }
    </style>
  </defs>
  <path id="ico-boost" class="cls-1" d="M1079.03,1320.08a0.89,0.89,0,0,0-.78,0l-16.53,8.65a0.783,0.783,0,0,0-.33.32c-0.45.78,0.07,1.62,1.96,3.12l-19.53,25.72-0.06.07c-0.46.78-.59,2.27,1.49,4.61,0.33,0.39.78,0.78,1.17,1.24-0.39.97-1.75,3.31-3.71,3.83-1.17.32-2.47-.13-3.84-1.3a10.324,10.324,0,0,1-3.9-6.63l2.54,0.59h0.19a0.862,0.862,0,0,0,.85-0.85,1,1,0,0,0-.13-0.39l-0.98-2.73,0.65-2.98a0.734,0.734,0,0,0-.26-0.78,0.758,0.758,0,0,0-.84-0.13l-2.87,1.04-2.99-.65a0.734,0.734,0,0,0-.78.26,0.758,0.758,0,0,0-.13.84l1.04,2.86-0.65,2.99a0.74,0.74,0,0,0,.26.78,0.726,0.726,0,0,0,.52.19,0.431,0.431,0,0,0,.26-0.06l1.69-.59a11.783,11.783,0,0,0,4.43,7.6,6.464,6.464,0,0,0,4.1,1.76,7.757,7.757,0,0,0,1.17-.13c2.47-.65,3.97-3.12,4.56-4.29a32.054,32.054,0,0,0,3.64,2.47,9.4,9.4,0,0,0,.85.45l-3.58,6.11a0.638,0.638,0,0,0-.07.58,1.046,1.046,0,0,0,.39.52l2.87,1.69a0.859,0.859,0,0,0,.39.13,0.883,0.883,0,0,0,.71-0.39l3.91-6.75a13.217,13.217,0,0,0,3.77.71h0a2.923,2.923,0,0,0,2.74-1.17,0.059,0.059,0,0,1,.06-0.06l12.89-29.63a6.924,6.924,0,0,0,2.6.72,1.221,1.221,0,0,0,1.11-.52,1,1,0,0,0,.13-0.46l-0.52-18.64A0.956,0.956,0,0,0,1079.03,1320.08Zm-46.47,38.53,0.39-1.76a0.977,0.977,0,0,0,0-.45l-0.58-1.62,1.75,0.38a1.021,1.021,0,0,0,.46,0l1.69-.58-0.39,1.75a1.187,1.187,0,0,0,0,.46l0.59,1.69-1.76-.39a1.021,1.021,0,0,0-.46,0Zm42.5-20.34-13.21,30.34a1.636,1.636,0,0,1-1.3.39h0c-2.02,0-5.21-1.1-8.33-2.99a23.209,23.209,0,0,1-5.67-4.41c-1.17-1.37-1.49-2.34-1.3-2.73l19.98-26.31a0.889,0.889,0,0,0-.13-1.17,15.835,15.835,0,0,1-1.82-1.56l14.58-7.73,0.52,16.56a11.49,11.49,0,0,1-2.28-.84A0.846,0.846,0,0,0,1075.06,1338.27Zm-23.17,36.64-1.43-.84,3.19-5.46c0.52,0.26,1.04.52,1.56,0.72Zm9.11-31.05-8.98,12.99a0.815,0.815,0,0,0,.2,1.11,1.279,1.279,0,0,0,.45.13,0.791,0.791,0,0,0,.65-0.33l8.99-12.99a0.8,0.8,0,0,0-.2-1.1A0.823,0.823,0,0,0,1061,1343.86Z" transform="translate(-1030.16 -1320)"/>
</svg>
