<svg id="tarifs" xmlns="http://www.w3.org/2000/svg" width="45" height="48" viewBox="0 0 45 48">
  <metadata><?xpacket begin="﻿" id="W5M0MpCehiHzreSzNTczkc9d"?>
<x:xmpmeta xmlns:x="adobe:ns:meta/" x:xmptk="Adobe XMP Core 5.6-c138 79.159824, 2016/09/14-01:09:01        ">
   <rdf:RDF xmlns:rdf="http://www.w3.org/1999/02/22-rdf-syntax-ns#">
      <rdf:Description rdf:about=""/>
   </rdf:RDF>
</x:xmpmeta>
                                                                                                    
                                                                                                    
                                                                                                    
                                                                                                    
                                                                                                    
                                                                                                    
                                                                                                    
                                                                                                    
                                                                                                    
                                                                                                    
                                                                                                    
                                                                                                    
                                                                                                    
                                                                                                    
                                                                                                    
                                                                                                    
                                                                                                    
                                                                                                    
                                                                                                    
                                                                                                    
                           
<?xpacket end="w"?></metadata>
<defs>
    <style>
      .cls-1 {
        fill: #fff;
      }

      .cls-1, .cls-2, .cls-3 {
        fill-rule: evenodd;
      }

      .cls-2 {
        fill: #f9cccb;
      }

      .cls-3 {
        fill: #1d1d1b;
      }

      .cls-4 {
        fill: none;
        stroke: #1d1d1b;
        stroke-width: 1.5px;
      }
    </style>
  </defs>
  <path id="Forme_1596_copie_2" data-name="Forme 1596 copie 2" class="cls-1" d="M777.251,947.429l-2.358-2.359a0.748,0.748,0,0,0-.749-0.749l-2.358-2.359a0.75,0.75,0,0,0-.749-0.749l-2.359-2.358a0.749,0.749,0,0,0-.749-0.75l-2.358-2.357a0.749,0.749,0,0,0-.749-0.749h-3.107a0.75,0.75,0,0,0-.53.22l-27.944,27.947a0.744,0.744,0,0,0-.22.525L733,966.819a0.751,0.751,0,0,0,.75.754h0l2.368-.017-0.015,2.369a0.748,0.748,0,0,0,.749.754h0l2.369-.015-0.016,2.368a0.745,0.745,0,0,0,.219.535,0.672,0.672,0,0,0,.534.219l2.369-.015-0.015,2.37a0.748,0.748,0,0,0,.749.753h0l2.369-.015-0.016,2.368a0.749,0.749,0,0,0,.749.753h0l3.129-.02a0.75,0.75,0,0,0,.525-0.219l27.944-27.947a0.75,0.75,0,0,0,.219-0.53v-3.107A0.749,0.749,0,0,0,777.251,947.429Z" transform="translate(-733 -935)"/>
  <path id="pink_copie_5" data-name="pink copie 5" class="cls-2" d="M746.978,977.877l25.8-25.8a3,3,0,0,1,4.243,4.242l-25.8,25.8A3,3,0,0,1,746.978,977.877Z" transform="translate(-733 -935)"/>
  <path id="Forme_1596_copie_2-2" data-name="Forme 1596 copie 2" class="cls-3" d="M752.161,952.777a0.747,0.747,0,0,0,.53-0.219l8.238-8.238a0.749,0.749,0,1,0-1.059-1.06l-8.238,8.238A0.75,0.75,0,0,0,752.161,952.777Zm12.569-5.717a0.749,0.749,0,0,0-1.06,0l-8.238,8.239a0.749,0.749,0,0,0,1.06,1.059l8.238-8.239A0.75,0.75,0,0,0,764.73,947.06Zm1.1,6.5a0.748,0.748,0,0,0-1.059,0l-5.539,5.539a0.749,0.749,0,1,0,1.059,1.059l5.539-5.539A0.75,0.75,0,0,0,765.83,953.561Zm11.421-6.132-2.358-2.359a0.748,0.748,0,0,0-.749-0.749l-2.358-2.359a0.75,0.75,0,0,0-.749-0.749l-2.359-2.358a0.749,0.749,0,0,0-.749-0.75l-2.358-2.357a0.749,0.749,0,0,0-.749-0.749h-3.107a0.75,0.75,0,0,0-.53.22l-27.944,27.947a0.744,0.744,0,0,0-.22.525L733,966.819a0.751,0.751,0,0,0,.75.754h0l9.321,9.321,2.353,2.353a0.749,0.749,0,0,0,.749.753h0l3.129-.02a0.75,0.75,0,0,0,.525-0.219l27.944-27.947a0.75,0.75,0,0,0,.219-0.53v-3.107A0.749,0.749,0,0,0,777.251,947.429Zm-0.749,3.547L749,978.486l-2.063.013-3.107-3.106-3.107-3.109-3.107-3.107-3.107-3.106,0.014-2.062L762.025,936.5h2.048l3.107,3.106,3.108,3.108,3.108,3.108,3.107,3.108v2.048h0Z" transform="translate(-733 -935)"/>
  <circle id="Ellipse_1600_copie" data-name="Ellipse 1600 copie" class="cls-4" cx="16" cy="28" r="5"/>
</svg>
