<?xml version="1.0" encoding="UTF-8"?>
<svg width="40px" height="42px" viewBox="0 0 40 42" version="1.1" xmlns="http://www.w3.org/2000/svg" xmlns:xlink="http://www.w3.org/1999/xlink">
    <!-- Generator: Sketch 43.2 (39069) - http://www.bohemiancoding.com/sketch -->
    <title>ico-clock-blue</title>
    <desc>Created with Sketch.</desc>
    <defs></defs>
    <g id="Page-1" stroke="none" stroke-width="1" fill="none" fill-rule="evenodd">
        <g id="ico-clock-blue" transform="translate(-1.000000, 0.000000)">
            <rect id="pink" fill="#9CD9F3" fill-rule="nonzero" x="7" y="36" width="27" height="6" rx="3"></rect>
            <path d="M21,1.35525272e-20 C11.4581309,-0.00203800128 3.24370535,6.73678153 1.38065736,16.0950038 C-0.482390625,25.453226 4.5248673,34.8242368 13.3399975,38.4767359 C22.1551278,42.129235 32.3227876,39.0458652 37.624447,31.1124121 C42.9261065,23.1789591 41.8850556,12.6051855 35.138,5.858 C31.3968427,2.09548411 26.3059014,-0.013918491 21,1.35525272e-20 Z" id="ico-time-path" fill="#FDFDFD"></path>
            <path d="M21,4.018 C14.5332663,4.01516853 8.70178958,7.90866952 6.22548922,13.8824948 C3.74918887,19.8563202 5.11588808,26.7336455 9.68813052,31.3067464 C14.260373,35.8798473 21.1374416,37.2478375 27.1117317,34.7726587 C33.0860218,32.2974798 36.9806175,26.4667341 36.979,20 C36.9690836,11.1786669 29.8213311,4.02957243 21,4.018 Z M21,34.53 C15.1239231,34.5332358 9.82458702,30.9962228 7.57338703,25.5684803 C5.32218703,20.1407378 6.56253029,13.89134 10.7159711,9.73475249 C14.8694119,5.57816493 21.1178684,4.3330891 26.5473144,6.5801778 C31.9767603,8.8272665 35.5177856,14.1239223 35.519,20 C35.5129438,28.0178941 29.0178872,34.5178715 21,34.53 L21,34.53 Z M21,-8.8817842e-16 C11.4581309,-0.00203800128 3.24370535,6.73678153 1.38065736,16.0950038 C-0.482390625,25.453226 4.5248673,34.8242368 13.3399975,38.4767359 C22.1551278,42.129235 32.3227876,39.0458652 37.624447,31.1124121 C42.9261065,23.1789591 41.8850556,12.6051855 35.138,5.858 C31.3968427,2.09548411 26.3059014,-0.013918491 21,-8.8817842e-16 Z M21,38.545 C13.4995114,38.5482359 6.73573255,34.0326476 3.86299057,27.1041057 C0.99024858,20.1755638 2.57436714,12.1987342 7.87658344,6.89365726 C13.1787997,1.58858032 21.1547738,0.000159491803 28.0848641,2.86916398 C35.0149545,5.73816847 39.5341903,12.4995108 39.535,20 C39.5267387,30.2349555 31.2349488,38.5316663 21,38.546 L21,38.545 Z M21,10.675 C21.4023866,10.6738976 21.7280015,10.3473881 21.728,9.945 L21.728,7.984 C21.7378897,7.71693287 21.6010513,7.46580932 21.371272,7.32933892 C21.1414928,7.19286851 20.8555072,7.19286851 20.625728,7.32933892 C20.3959487,7.46580932 20.2591103,7.71693287 20.269,7.984 L20.269,9.945 C20.2687341,10.1389546 20.3456646,10.3250419 20.4828114,10.4621886 C20.6199581,10.5993354 20.8060454,10.6762659 21,10.676 L21,10.675 Z M21,29.331 C20.8063109,29.3304686 20.6203727,29.4070391 20.4832258,29.5438108 C20.3460789,29.6805824 20.2689993,29.8663102 20.269,30.06 L20.269,32.021 C20.2591103,32.2880671 20.3959487,32.5391907 20.625728,32.6756611 C20.8555072,32.8121315 21.1414928,32.8121315 21.371272,32.6756611 C21.6010513,32.5391907 21.7378897,32.2880671 21.728,32.021 L21.728,30.06 C21.7274492,29.6581651 21.4018349,29.3325508 21,29.332 L21,29.331 Z M30.322,20 C30.3219996,20.40333 30.6486704,20.7304482 31.052,20.731 L33.013,20.731 C33.4161679,20.731 33.743,20.4041679 33.743,20.001 C33.743,19.5978321 33.4161679,19.271 33.013,19.271 L31.052,19.271 C30.858484,19.2707345 30.672803,19.3474225 30.5358726,19.4841653 C30.3989422,19.6209081 30.3219998,19.8064838 30.322,20 L30.322,20 Z M10.944,19.271 L8.984,19.271 C8.58083213,19.271 8.254,19.5978321 8.254,20.001 C8.254,20.4041679 8.58083213,20.731 8.984,20.731 L10.944,20.731 C11.2154254,20.7484269 11.4740324,20.6135125 11.6150272,20.3809272 C11.7560221,20.1483419 11.7560221,19.8566581 11.6150272,19.6240728 C11.4740324,19.3914875 11.2154254,19.2565731 10.944,19.274 L10.944,19.271 Z M25.484,19.194 L23.884,19.194 C23.6136707,18.1351434 22.7868566,17.3083293 21.728,17.038 L21.728,14.27 C21.728,13.8673844 21.4016156,13.541 20.999,13.541 C20.5963844,13.541 20.27,13.8673844 20.27,14.27 L20.27,17.039 C18.8580107,17.3942587 17.910152,18.7186906 18.0293769,20.1697963 C18.1486019,21.620902 19.2999247,22.7728621 20.7509642,22.8928901 C22.2020037,23.0129181 23.52696,22.0657925 23.883,20.654 L25.483,20.654 C25.8590224,20.6200662 26.1471285,20.3050069 26.1473882,19.9274566 C26.1476479,19.5499063 25.8599753,19.234451 25.484,19.2 L25.484,19.194 Z M21,21.447 C20.3844504,21.448214 19.8288552,21.0782966 19.5925463,20.5099122 C19.3562375,19.9415277 19.4858096,19.2867484 19.9207831,18.8512018 C20.3557566,18.4156552 21.0103647,18.2852211 21.5790599,18.5207814 C22.147755,18.7563417 22.5184035,19.3114493 22.518,19.927 C22.5169014,20.765237 21.8382349,21.4447977 21,21.447 Z" id="ico-time" fill="#1D1D1B"></path>
        </g>
    </g>
</svg>