<svg xmlns="http://www.w3.org/2000/svg" width="55.75" height="37.6" viewBox="0 0 55.75 37.6">
  <metadata><?xpacket begin="﻿" id="W5M0MpCehiHzreSzNTczkc9d"?>
<x:xmpmeta xmlns:x="adobe:ns:meta/" x:xmptk="Adobe XMP Core 5.6-c138 79.159824, 2016/09/14-01:09:01        ">
   <rdf:RDF xmlns:rdf="http://www.w3.org/1999/02/22-rdf-syntax-ns#">
      <rdf:Description rdf:about=""/>
   </rdf:RDF>
</x:xmpmeta>
                                                                                                    
                                                                                                    
                                                                                                    
                                                                                                    
                                                                                                    
                                                                                                    
                                                                                                    
                                                                                                    
                                                                                                    
                                                                                                    
                                                                                                    
                                                                                                    
                                                                                                    
                                                                                                    
                                                                                                    
                                                                                                    
                                                                                                    
                                                                                                    
                                                                                                    
                                                                                                    
                           
<?xpacket end="w"?></metadata>
<defs>
    <style>
      .cls-1 {
        fill: #1d1d1b;
        fill-rule: evenodd;
      }
    </style>
  </defs>
  <path id="ico-call" class="cls-1" d="M1323.2,1238.51h-9.47a0.805,0.805,0,1,0,0,1.61h9.47A0.805,0.805,0,0,0,1323.2,1238.51Zm-11.86-6.86a0.813,0.813,0,0,0,.53-0.2l7.66-6.81a0.808,0.808,0,0,0-1.07-1.21l-7.66,6.81a0.817,0.817,0,0,0-.07,1.14A0.8,0.8,0,0,0,1311.34,1231.65Zm0.53,15.53a0.8,0.8,0,0,0-1.14.07,0.817,0.817,0,0,0,.07,1.14l7.66,6.8a0.817,0.817,0,0,0,.54.21,0.8,0.8,0,0,0,.6-0.27,0.816,0.816,0,0,0-.07-1.14Zm-13.16-21.62-7.29,4a0.757,0.757,0,0,0-.3,1.03,0.747,0.747,0,0,0,.66.4,0.677,0.677,0,0,0,.36-0.1l7.29-4A0.756,0.756,0,0,0,1298.71,1225.56Zm6.53,5.83h-0.02v-7.53c0-2.11-1.08-3.34-2.63-3.34a4.2,4.2,0,0,0-2.04.6l-13.3,7.49a24.242,24.242,0,0,1-10.03,2.64h-3.62a5.375,5.375,0,0,0-5.36,5.37v5.39a5.382,5.382,0,0,0,5.36,5.37h3.62a24.23,24.23,0,0,1,10.03,2.63l13.3,7.49a4.226,4.226,0,0,0,2.04.61c1.55,0,2.63-1.23,2.63-3.35v-7.53A8.8,8.8,0,0,0,1305.24,1231.39Zm-1.63,23.37c0,0.65-.13,1.74-1.02,1.74a2.638,2.638,0,0,1-1.26-.4l-13.29-7.49a25.712,25.712,0,0,0-10.82-2.84h-3.62a3.768,3.768,0,0,1-3.76-3.76v-5.39a3.768,3.768,0,0,1,3.76-3.76h3.62a25.712,25.712,0,0,0,10.82-2.84l13.29-7.49a2.638,2.638,0,0,1,1.26-.4c0.89,0,1.02,1.09,1.02,1.73v30.9Zm1.61-9.38v-12.15A7.161,7.161,0,0,1,1305.22,1245.38Z" transform="translate(-1268.25 -1220.53)"/>
</svg>
