<svg xmlns="http://www.w3.org/2000/svg" width="50" height="48" viewBox="0 0 50 48">
  <metadata><?xpacket begin="﻿" id="W5M0MpCehiHzreSzNTczkc9d"?>
<x:xmpmeta xmlns:x="adobe:ns:meta/" x:xmptk="Adobe XMP Core 5.6-c138 79.159824, 2016/09/14-01:09:01        ">
   <rdf:RDF xmlns:rdf="http://www.w3.org/1999/02/22-rdf-syntax-ns#">
      <rdf:Description rdf:about=""/>
   </rdf:RDF>
</x:xmpmeta>
                                                                                                    
                                                                                                    
                                                                                                    
                                                                                                    
                                                                                                    
                                                                                                    
                                                                                                    
                                                                                                    
                                                                                                    
                                                                                                    
                                                                                                    
                                                                                                    
                                                                                                    
                                                                                                    
                                                                                                    
                                                                                                    
                                                                                                    
                                                                                                    
                                                                                                    
                                                                                                    
                           
<?xpacket end="w"?></metadata>
<defs>
    <style>
      .cls-1 {
        fill: #1d1d1b;
        fill-rule: evenodd;
      }
    </style>
  </defs>
  <path id="ico-growth" class="cls-1" d="M385.019,1263.89H395v-34.96h-9.979v34.96Zm1.592-33.37h6.8v31.78h-6.8v-31.78Zm-14.969,33.37h9.979v-23.84h-9.979v23.84Zm1.592-22.25h6.8v20.66h-6.8v-20.66Zm-4.883,22.25V1244.5h-9.98v19.49h9.98v-0.1Zm-8.494-17.8h6.795v16.21h-6.795v-16.21Zm-4.883,3.71h-9.98v14.19h9.98V1249.8Zm-1.593,12.5h-6.794v-10.91h6.794v10.91Zm29.939-43.22,2.017,3.82,1.38-.75-3.291-6.14-6.157,3.28,0.743,1.38,3.716-2.01c-7.963,22.03-33.761,21.29-34.08,21.29l-0.106,1.59h0.425C351.364,1241.64,375.57,1240.9,383.32,1219.08Z" transform="translate(-345 -1216)"/>
</svg>
