<svg xmlns="http://www.w3.org/2000/svg" width="46" height="46" viewBox="0 0 46 46">
  <metadata><?xpacket begin="﻿" id="W5M0MpCehiHzreSzNTczkc9d"?>
<x:xmpmeta xmlns:x="adobe:ns:meta/" x:xmptk="Adobe XMP Core 5.6-c138 79.159824, 2016/09/14-01:09:01        ">
   <rdf:RDF xmlns:rdf="http://www.w3.org/1999/02/22-rdf-syntax-ns#">
      <rdf:Description rdf:about=""/>
   </rdf:RDF>
</x:xmpmeta>
                                                                                                    
                                                                                                    
                                                                                                    
                                                                                                    
                                                                                                    
                                                                                                    
                                                                                                    
                                                                                                    
                                                                                                    
                                                                                                    
                                                                                                    
                                                                                                    
                                                                                                    
                                                                                                    
                                                                                                    
                                                                                                    
                                                                                                    
                                                                                                    
                                                                                                    
                                                                                                    
                           
<?xpacket end="w"?></metadata>
<defs>
    <style>
      .cls-1 {
        fill: #1d1d1b;
        fill-rule: evenodd;
      }
    </style>
  </defs>
  <path id="ico-network" class="cls-1" d="M611.622,1217a5.111,5.111,0,0,0-2.811,9.38l-2.507,8.38a7.568,7.568,0,0,0-7.06,1.25l-7.891-6.65a4.55,4.55,0,0,0,.847-2.65,4.6,4.6,0,1,0-4.6,4.6,4.569,4.569,0,0,0,2.2-.57l8,6.74a7.606,7.606,0,0,0,.064,9.2l-5.191,5.2a6.121,6.121,0,1,0,2.588,4.99,6.06,6.06,0,0,0-1.15-3.55l5.191-5.19a7.628,7.628,0,0,0,11.292-2.3l7.235,2.41a5.693,5.693,0,1,0,.719-1.9l-7.187-2.39a7.311,7.311,0,0,0-.064-4.05l7.6-5.06a4.584,4.584,0,1,0-1.15-3.02,4.527,4.527,0,0,0,.159,1.2l-7.459,4.98a7.752,7.752,0,0,0-2.3-2.36l2.556-8.51a5.45,5.45,0,0,0,.91.09A5.11,5.11,0,1,0,611.622,1217Zm0,2.04a3.07,3.07,0,1,1-3.066,3.07A3.058,3.058,0,0,1,611.622,1219.04Zm-24.022,5.12a2.555,2.555,0,1,1-2.556,2.55A2.538,2.538,0,0,1,587.6,1224.16Zm34.756,5.11a2.555,2.555,0,1,1-2.556,2.55A2.538,2.538,0,0,1,622.356,1229.27Zm-18.4,7.15a5.625,5.625,0,1,1-5.623,5.62A5.609,5.609,0,0,1,603.956,1236.42Zm19.422,9.2a3.58,3.58,0,1,1-3.578,3.58A3.563,3.563,0,0,1,623.378,1245.62Zm-34.245,7.16a4.09,4.09,0,1,1-4.089,4.09A4.074,4.074,0,0,1,589.133,1252.78Z" transform="translate(-583 -1217)"/>
</svg>
