<svg id="plan" xmlns="http://www.w3.org/2000/svg" width="46.656" height="34.25" viewBox="0 0 46.656 34.25">
  <metadata><?xpacket begin="﻿" id="W5M0MpCehiHzreSzNTczkc9d"?>
<x:xmpmeta xmlns:x="adobe:ns:meta/" x:xmptk="Adobe XMP Core 5.6-c138 79.159824, 2016/09/14-01:09:01        ">
   <rdf:RDF xmlns:rdf="http://www.w3.org/1999/02/22-rdf-syntax-ns#">
      <rdf:Description rdf:about=""/>
   </rdf:RDF>
</x:xmpmeta>
                                                                                                    
                                                                                                    
                                                                                                    
                                                                                                    
                                                                                                    
                                                                                                    
                                                                                                    
                                                                                                    
                                                                                                    
                                                                                                    
                                                                                                    
                                                                                                    
                                                                                                    
                                                                                                    
                                                                                                    
                                                                                                    
                                                                                                    
                                                                                                    
                                                                                                    
                                                                                                    
                           
<?xpacket end="w"?></metadata>
<defs>
    <style>
      .cls-1 {
        fill: #fff;
      }

      .cls-1, .cls-2, .cls-3 {
        fill-rule: evenodd;
      }

      .cls-2 {
        fill: #9cd9f3;
      }

      .cls-3 {
        fill: #1d1d1b;
      }
    </style>
  </defs>
  <path id="ico-map" class="cls-1" d="M990.034,953.049l-7-3.313a10.125,10.125,0,0,0-3.63-.817h-5.714c0.009-.114.015-0.224,0.015-0.329a6.4,6.4,0,0,0-6.178-6.6,6.151,6.151,0,0,0-5.515,3.641l-1.788-.845a2.044,2.044,0,0,0-.88-0.192,2.32,2.32,0,0,0-1.918,1.01L945.311,964.1a1.634,1.634,0,0,0,.655,2.452l7,3.313a10.1,10.1,0,0,0,3.63.817h8.548a10.076,10.076,0,0,1,3.63.817l7,3.312a2.045,2.045,0,0,0,.88.193A2.318,2.318,0,0,0,978.576,974L990.689,955.5a1.636,1.636,0,0,0-.655-2.453h0Z" transform="translate(-944.344 -942)"/>
  <path id="pink_copie_2" data-name="pink copie 2" class="cls-2" d="M948.031,963.848L976.3,970.3a3,3,0,1,1-1.335,5.849L946.7,969.7A3,3,0,0,1,948.031,963.848Z" transform="translate(-944.344 -942)"/>
  <path id="ico-map_copie" data-name="ico-map copie" class="cls-3" d="M966.574,948.424a0.951,0.951,0,1,1,.951.99,0.972,0.972,0,0,1-.951-0.99m3.8,0a2.854,2.854,0,1,0-2.851,2.968,2.914,2.914,0,0,0,2.851-2.968m6.629,24.456a0.463,0.463,0,0,1-.347.147,0.245,0.245,0,0,1-.094-0.015l-7-3.313a8.937,8.937,0,0,0-1.1-.419l11.859-18.289a8.062,8.062,0,0,1,1.92.547l6.672,3.156Zm-11.859-4.174h-7.879l7.519-11.584c0.932,1.638,1.742,2.909,1.95,3.23a0.929,0.929,0,0,0,1.578,0,53.391,53.391,0,0,0,4.914-9.454h4.864l-11.621,17.921a9.1,9.1,0,0,0-1.325-.113h0Zm-10.04-.205a7.082,7.082,0,0,1-1.352-.435l-6.671-3.156L959,946.723a0.464,0.464,0,0,1,.347-0.146,0.236,0.236,0,0,1,.093.014l2,0.945a7.037,7.037,0,0,0-.086,1.054c0,1.609,1.149,4.239,2.39,6.613Zm12.419-24.528a4.462,4.462,0,0,1,4.277,4.617c0,1.777-2.372,6.264-4.277,9.4-1.906-3.133-4.277-7.619-4.277-9.4a4.461,4.461,0,0,1,4.277-4.617h0Zm22.509,9.076-7-3.313a10.125,10.125,0,0,0-3.63-.817h-5.714c0.009-.114.015-0.224,0.015-0.329a6.4,6.4,0,0,0-6.178-6.6,6.151,6.151,0,0,0-5.515,3.641l-1.788-.845a2.044,2.044,0,0,0-.88-0.192,2.32,2.32,0,0,0-1.918,1.01L945.311,964.1a1.634,1.634,0,0,0,.655,2.452l7,3.313a10.1,10.1,0,0,0,3.63.817h8.548a10.076,10.076,0,0,1,3.63.817l7,3.312a2.045,2.045,0,0,0,.88.193A2.318,2.318,0,0,0,978.576,974L990.689,955.5a1.636,1.636,0,0,0-.655-2.453h0Z" transform="translate(-944.344 -942)"/>
</svg>
