<svg enable-background="new 0 0 55.8 37.6" viewBox="0 0 55.8 37.6" xmlns="http://www.w3.org/2000/svg"><path clip-rule="evenodd" d="m54.9 18h-9.5c-.4 0-.8.4-.8.8s.4.8.8.8h9.5c.4 0 .8-.4.8-.8 0-.5-.3-.8-.8-.8zm-11.8-6.9c.2 0 .4-.1.5-.2l7.7-6.8c.3-.3.3-.8 0-1.1s-.8-.3-1.1-.1l-7.7 6.8c-.3.3-.4.8-.1 1.1.2.2.5.3.7.3zm.5 15.6c-.3-.3-.8-.3-1.1.1-.3.3-.3.8.1 1.1l7.7 6.8c.1.1.3.2.5.2s.4-.1.6-.3c.3-.3.3-.8-.1-1.1zm-13.1-21.7-7.3 4c-.4.2-.5.7-.3 1 .1.2.4.4.7.4.1 0 .3 0 .4-.1l7.3-4c.4-.2.5-.7.3-1s-.8-.5-1.1-.3zm6.5 5.9v-7.5c0-2.2-1.1-3.4-2.7-3.4-.7 0-1.4.2-2 .6l-13.3 7.5c-3.1 1.6-6.5 2.5-10 2.6h-3.7c-3 0-5.4 2.4-5.4 5.4v5.4c0 3 2.4 5.4 5.4 5.4h3.7c3.5.1 6.9 1 10 2.6l13.3 7.5c.6.4 1.3.6 2 .6 1.6 0 2.6-1.2 2.6-3.3v-7.5c4.4-2.1 6.2-7.4 4.1-11.8-.8-1.8-2.2-3.3-4-4.1zm-1.6 23.3c0 .7-.1 1.7-1 1.7-.4 0-.9-.2-1.3-.4l-13.3-7.5c-3.4-1.7-7-2.7-10.8-2.8h-3.7c-2.1 0-3.8-1.7-3.8-3.8v-5.4c0-2.1 1.7-3.8 3.8-3.8h3.7c3.8-.1 7.5-1.1 10.8-2.8l13.3-7.4c.4-.2.8-.4 1.3-.4.9 0 1 1.1 1 1.7zm1.6-9.4v-12.1c3.4 2.1 4.4 6.5 2.3 9.9-.6.9-1.4 1.7-2.3 2.2z" fill="#2d3a69" fill-rule="evenodd"/></svg>