<svg enable-background="new 0 0 47 54.1" viewBox="0 0 47 54.1" xmlns="http://www.w3.org/2000/svg"><path clip-rule="evenodd" d="m33.5 37.8c0 2.1-1.7 3.7-3.7 3.7h-1.2v12.5h-1.8v-14.2h3c1.1 0 2-.9 2-2v-16.4c0-1.1-.9-2-2-2h-12.5c-1.1 0-2 .9-2 2v16.4c0 1.1.9 2 2 2h2.8v14.3h-1.8v-12.5h-1c-2.1 0-3.7-1.7-3.7-3.7v-16.5c0-2.1 1.7-3.7 3.7-3.7h12.5c2.1 0 3.7 1.7 3.7 3.7zm-17.2-30.6c0-4 3.2-7.2 7.2-7.2s7.2 3.2 7.2 7.2-3.2 7.2-7.2 7.2c-4 0-7.2-3.2-7.2-7.2zm1.8 0c0 3 2.4 5.4 5.4 5.4s5.5-2.4 5.5-5.4-2.4-5.4-5.4-5.4-5.5 2.4-5.5 5.4zm-6.9 46.8h1.8v-10.4h.8v-1.8h-2.7zm-9.4-13.7v-13.9c0-.8.7-1.5 1.5-1.5h8.2v-1.8h-8.2c-1.8 0-3.3 1.5-3.3 3.3v13.9c0 1.8 1.5 3.3 3.3 3.3h.7v10.4h1.8v-12.2h-2.5c-.8 0-1.5-.6-1.5-1.5zm.5-25.9c0-3.5 2.8-6.2 6.2-6.2 3.5 0 6.2 2.8 6.2 6.2 0 3.5-2.8 6.2-6.2 6.2-3.4.1-6.2-2.7-6.2-6.2zm1.8 0c0 2.4 2 4.4 4.4 4.4s4.4-2 4.4-4.4c.1-2.4-1.9-4.4-4.3-4.4-2.5 0-4.5 2-4.5 4.4zm29 29.2h.9v10.4h1.8v-12.2h-2.6v1.8zm10.6-20.5h-8.2v1.9h8.2c.8 0 1.5.7 1.5 1.5v13.9c0 .8-.7 1.5-1.5 1.5h-2.6v12.1h1.9v-10.4h.7c1.8 0 3.3-1.5 3.3-3.3v-13.9c0-1.8-1.5-3.3-3.3-3.3zm-11.5-8.7c0-3.5 2.8-6.2 6.2-6.2 3.5 0 6.2 2.8 6.2 6.2 0 3.5-2.8 6.2-6.2 6.2-3.4.1-6.2-2.7-6.2-6.2zm1.8 0c0 2.4 2 4.4 4.4 4.4s4.4-2 4.4-4.4-2-4.4-4.4-4.4c-2.5 0-4.4 2-4.4 4.4z" fill="#2d3a69" fill-rule="evenodd"/></svg>