<svg enable-background="new 0 0 46.7 34.2" viewBox="0 0 46.7 34.2" xmlns="http://www.w3.org/2000/svg"><g clip-rule="evenodd" fill-rule="evenodd"><path d="m45.7 11-7-3.3c-1.1-.5-2.4-.8-3.6-.8h-5.7c0-.1 0-.2 0-.3.1-3.5-2.7-6.5-6.2-6.6-2.4 0-4.5 1.5-5.5 3.6l-1.8-.8c-.3-.1-.6-.2-.9-.2-.8 0-1.5.4-1.9 1l-12.1 18.5c-.5.7-.4 1.8.4 2.3.1.1.2.1.3.2l7 3.3c1.1.5 2.4.8 3.6.8h8.5c1.3 0 2.5.3 3.6.8l7 3.3c.3.1.6.2.9.2.8 0 1.5-.4 1.9-1l12.1-18.5c.5-.7.4-1.8-.4-2.3 0-.1-.1-.1-.2-.2z" fill="#fff"/><path d="m3.7 21.8 28.3 6.5c1.6.3 2.7 1.9 2.3 3.6-.3 1.6-1.9 2.7-3.6 2.3h-.1l-28.2-6.5c-1.6-.4-2.6-2-2.3-3.6s2-2.6 3.6-2.3z" fill="#e3ded8"/><path d="m22.2 6.4c0-.5.5-.9 1-.9s.9.5.9 1-.4.9-.9.9c-.6 0-1-.4-1-1m3.8 0c-.1-1.6-1.4-2.8-3-2.7s-2.8 1.4-2.7 3c.1 1.5 1.3 2.7 2.9 2.7s2.9-1.4 2.8-3m6.7 24.5c-.1.1-.3.1-.4.1h-.1l-7-3.3c-.4-.2-.7-.3-1.1-.4l11.9-18.3c.7.1 1.3.3 1.9.5l6.7 3.2zm-11.9-4.2h-7.9l7.5-11.6c.9 1.6 1.7 2.9 2 3.2.3.4.8.6 1.3.3.1-.1.2-.2.3-.3 1.9-3 3.6-6.1 4.9-9.5h4.9l-11.7 18c-.4-.1-.9-.1-1.3-.1zm-10-.2c-.5-.1-.9-.2-1.4-.4l-6.7-3.2 12-18.2c.1-.1.2-.1.3-.1h.1l2 .9c-.1.4-.1.7-.1 1.1 0 1.6 1.1 4.2 2.4 6.6zm12.4-24.5c2.5.1 4.4 2.2 4.3 4.6 0 1.8-2.4 6.3-4.3 9.4-1.9-3.1-4.3-7.6-4.3-9.4-.1-2.5 1.8-4.5 4.3-4.6zm22.5 9-7-3.3c-1.1-.5-2.4-.8-3.6-.8h-5.7c0-.1 0-.2 0-.3.1-3.5-2.7-6.5-6.2-6.6-2.4 0-4.5 1.5-5.5 3.6l-1.8-.8c-.3-.1-.6-.2-.9-.2-.8 0-1.5.4-1.9 1l-12.1 18.5c-.5.7-.4 1.8.4 2.3.1.1.2.1.3.2l7 3.3c1.1.5 2.4.8 3.6.8h8.5c1.3 0 2.5.3 3.6.8l7 3.3c.3.1.6.2.9.2.8 0 1.5-.4 1.9-1l12.1-18.5c.5-.7.4-1.8-.4-2.3 0-.1-.1-.1-.2-.2z" fill="#2d3a69"/></g></svg>