<svg enable-background="new 0 0 46 46" viewBox="0 0 46 46" xmlns="http://www.w3.org/2000/svg"><path clip-rule="evenodd" d="m28.6 0c-2.8 0-5.1 2.3-5.1 5.1 0 1.7.9 3.3 2.3 4.3l-2.5 8.4c-2.4-.8-5.1-.3-7.1 1.2l-7.9-6.7c.6-.8.8-1.7.8-2.7 0-2.5-2.1-4.6-4.6-4.6-2.4.1-4.5 2.2-4.5 4.7s2.1 4.6 4.6 4.6c.8 0 1.5-.2 2.2-.6l8 6.7c-2 2.7-2 6.5.1 9.2l-5.2 5.2c-2.8-2-6.6-1.3-8.5 1.5-2 2.8-1.3 6.6 1.5 8.5 2.8 2 6.6 1.3 8.5-1.5.7-1 1.1-2.3 1.1-3.5 0-1.3-.4-2.5-1.2-3.6l5.2-5.2c3.3 2.6 8.1 1.9 10.7-1.4.2-.3.4-.6.6-.9l7.2 2.4c-.6 3.1 1.5 6.1 4.6 6.6 3.1.6 6.1-1.5 6.6-4.6s-1.5-6.1-4.6-6.6c-2.3-.4-4.7.6-5.9 2.7l-7.2-2.4c.4-1.3.3-2.7-.1-4.1l7.6-5.1c1.7 1.9 4.6 2.1 6.5.4s2.1-4.6.4-6.5-4.6-2.1-6.5-.4c-1 .9-1.6 2.1-1.5 3.5 0 .4.1.8.2 1.2l-7.5 5c-.6-.9-1.4-1.7-2.3-2.4l2.6-8.5c.3.1.6.1.9.1 2.8 0 5.1-2.2 5.2-5.1 0-2.6-2.3-4.9-5.2-4.9zm0 2c1.7 0 3.1 1.4 3.1 3.1s-1.4 3.1-3.1 3.1-3.1-1.4-3.1-3.1c0-1.7 1.4-3.1 3.1-3.1zm-24 5.2c1.4 0 2.6 1.1 2.6 2.6 0 1.4-1.1 2.6-2.6 2.6s-2.6-1.3-2.6-2.7c0-1.4 1.2-2.5 2.6-2.5zm34.8 5.1c1.4 0 2.6 1.1 2.6 2.6 0 1.4-1.1 2.6-2.6 2.6s-2.6-1.1-2.6-2.6c0-1.5 1.1-2.6 2.6-2.6-.1 0-.1 0 0 0zm-18.4 7.1c3.1 0 5.6 2.5 5.6 5.6s-2.5 5.6-5.6 5.6-5.6-2.5-5.6-5.6c-.1-3.1 2.4-5.6 5.6-5.6-.1 0-.1 0 0 0zm19.4 9.2c2 0 3.6 1.6 3.6 3.6s-1.6 3.6-3.6 3.6-3.6-1.6-3.6-3.6c0-2 1.6-3.6 3.6-3.6zm-34.3 7.2c2.3 0 4.1 1.8 4.1 4.1s-1.8 4.1-4.1 4.1c-2.2 0-4.1-1.9-4.1-4.1 0-2.3 1.9-4.1 4.1-4.1z" fill="#2d3a69" fill-rule="evenodd"/></svg>