<svg enable-background="new 0 0 45 48" viewBox="0 0 45 48" xmlns="http://www.w3.org/2000/svg"><g clip-rule="evenodd" fill-rule="evenodd"><path d="m44.3 12.4-2.4-2.4c0-.4-.3-.7-.7-.7l-2.4-2.3c0-.4-.3-.7-.7-.7l-2.4-2.4c0-.4-.3-.7-.7-.8l-2.4-2.4c0-.4-.3-.7-.7-.7h-3.1c-.2 0-.4.1-.5.2l-28.1 28c-.1.1-.2.3-.2.5v3.1c0 .4.3.8.7.8h2.4v2.4c0 .4.3.8.7.8h2.4v2.4c0 .2.1.4.2.5s.3.2.5.2h2.4v2.4c0 .4.3.8.7.8h2.4v2.4c0 .4.3.8.7.8h3.1c.2 0 .4-.1.5-.2l27.9-27.9c.1-.1.2-.3.2-.5v-3.1c.2-.8-.1-1.2-.5-1.2z" fill="#fff"/><path d="m14 42.9 25.8-25.8c1.2-1.2 3.1-1.1 4.2 0 1.1 1.2 1.1 3 0 4.2l-25.8 25.8c-1.2 1.2-3.1 1.1-4.2 0-1.2-1.2-1.2-3.1 0-4.2z" fill="#9cd9f3"/><path d="m19.2 17.8c.2 0 .4-.1.5-.2l8.2-8.2c.3-.3.3-.8 0-1.1s-.8-.3-1.1 0l-8.2 8.2c-.3.3-.3.8 0 1.1.2.1.4.2.6.2zm12.5-5.7c-.3-.3-.8-.3-1.1 0l-8.2 8.2c-.3.3-.3.8 0 1.1s.8.3 1.1 0l8.2-8.2c.3-.4.3-.8 0-1.1zm1.1 6.5c-.3-.3-.8-.3-1.1 0l-5.5 5.5c-.3.3-.3.8 0 1.1s.8.3 1.1 0l5.5-5.5c.3-.4.4-.8 0-1.1.1 0 .1 0 0 0zm11.5-6.2-2.4-2.4c0-.4-.3-.7-.7-.7l-2.4-2.3c0-.4-.3-.7-.7-.7l-2.4-2.4c0-.4-.3-.7-.7-.8l-2.4-2.4c0-.4-.3-.7-.7-.7h-3.1c-.2 0-.4.1-.5.2l-28.1 28c-.1.1-.2.3-.2.5v3.1c0 .4.3.8.7.8l9.3 9.3 2.4 2.4c0 .4.3.8.7.8h3.1c.2 0 .4-.1.5-.2l27.9-27.9c.1-.1.2-.3.2-.5v-3.1c.2-.6-.1-1-.5-1zm-.8 3.6-27.5 27.5h-2.1l-3.1-3.1-3.1-3.1-3.1-3.1-3.1-3.1v-2.1l27.5-27.5h2l3.1 3.1 3.1 3.1 3.1 3.1 3.1 3.1z" fill="#2d3a69"/></g><circle cx="16" cy="28" fill="none" r="5" stroke="#2d3a69" stroke-width="1.5"/></svg>