<svg height="60" viewBox="0 0 59 60" width="59" xmlns="http://www.w3.org/2000/svg"><g fill="#fff"><path d="m47.8848 24.6221 8.147.543c.031.006.057-.009.079-.03l.67-.672v-.141l-21.292-21.293-.141.001-.674.673.517 8.225zm8.154 2.544c-.048 0-.094-.002-.141-.005l-8.896-.594-13.759-13.758-.593-8.896c-.04-.602.181-1.194.608-1.623l.676-.676c.396-.395.924-.614 1.484-.614h.002c.561 0 1.087.219 1.484.616l21.292 21.292c.397.397.615.925.615 1.486s-.219 1.087-.616 1.484l-.671.673c-.399.395-.932.615-1.485.615z"/><path d="m2.7725 35.6445c-.026 0-.052.011-.072.031l-.67.672-.001.141 21.293 21.293.14-.001.674-.673-.516-8.225-12.695-12.694-8.146-.543c-.002 0-.005-.001-.007-.001m20.62 24.166c-.56 0-1.088-.219-1.484-.615l-21.293-21.293c-.397-.396-.615-.922-.615-1.483s.217-1.089.615-1.486l.672-.674c.432-.428 1.03-.647 1.626-.61l8.895.594 13.759 13.758.594 8.897c.041.601-.182 1.193-.609 1.622l-.676.676c-.396.396-.97.609-1.484.614"/><path d="m41.8536 21.167-13.229-2.405.358-1.967 13.228 2.405z"/><path d="m44.5889 28.3809-15-3.405.443-1.951 15 3.405z"/><path d="m34.461 39.1562-19.006-7.222.711-1.869 19.006 7.222z"/><path d="m30.2842 43.377-18.797-6.431.647-1.892 18.796 6.43z"/><path d="m8.2696 6.9883h.01zm3.535-.459c-1.072 0-2.076.414-2.828 1.166s-1.166 1.756-1.166 2.828.414 2.076 1.166 2.828l32.778 27.123-27.185-32.848c-.689-.683-1.693-1.097-2.765-1.097zm37.477 42.471c-.226 0-.452-.076-.638-.23l-41.012-33.941c-1.199-1.193-1.821-2.699-1.821-4.306 0-1.606.622-3.113 1.752-4.242 1.129-1.13 2.636-1.752 4.242-1.752 1.607 0 3.113.622 4.242 1.752l34.005 41.081c.329.397.302.98-.063 1.345-.195.194-.45.293-.707.293z"/><path d="m14.6329 14.3516c-.256 0-.512-.098-.707-.293l-2.828-2.828c-.391-.391-.391-1.024 0-1.414.39-.391 1.023-.391 1.414 0l2.828 2.828c.391.391.391 1.023 0 1.414-.195.195-.451.293-.707.293"/><path d="m11.8047 26.417c-1.606 0-3.113-.622-4.242-1.752-1.13-1.129-1.752-2.636-1.752-4.242 0-1.607.622-3.113 1.752-4.242l4.949-4.951c.391-.39 1.023-.39 1.414 0 .391.391.391 1.024 0 1.415l-4.949 4.95c-.752.752-1.166 1.756-1.166 2.828s.414 2.076 1.166 2.828 1.756 1.166 2.828 1.166 2.076-.414 2.828-1.166l2.122-2.121c.391-.391 1.024-.391 1.414 0 .391.391.391 1.023 0 1.414l-2.122 2.121c-1.129 1.13-2.636 1.752-4.242 1.752"/><path d="m16.7559 9.4023c-.29 0-.577-.125-.774-.366-.351-.428-.288-1.058.139-1.407 1.223-1.001 1.838-1.915 1.881-2.793.045-.911-.514-1.934-1.709-3.129-.391-.391-.391-1.024 0-1.414.391-.391 1.024-.391 1.414 0 1.617 1.617 2.367 3.135 2.293 4.641-.073 1.475-.928 2.863-2.611 4.241-.186.153-.41.227-.633.227"/><path d="m27.6739 20.3232 10.7 12.928 7.655-7.656-11.813-11.814zm10.56 15.896-13.261-16.023 9.243-9.243 14.642 14.642z"/><path d="m12.7813 35.2158 11.813 11.813 9.938-9.937-12.928-10.699zm11.813 14.642-14.641-14.642 11.524-11.524 16.024 13.261z"/></g></svg>