<svg height="60" viewBox="0 0 56 60" width="56" xmlns="http://www.w3.org/2000/svg"><g fill="#fff"><path d="m44.0001 2c-5.514 0-10 4.486-10 10v36c0 5.514 4.486 10 10 10s10-4.486 10-10v-36c0-5.514-4.486-10-10-10m0 58c-6.617 0-12-5.383-12-12v-36c0-6.617 5.383-12 12-12s12 5.383 12 12v36c0 6.617-5.383 12-12 12"/><path d="m2.0001 58h35.373c-3.236-2.151-5.373-5.831-5.373-10v-35h-30zm42 2h-44v-49h34v37c0 5.514 4.486 10 10 10z"/><path d="m44.0001 38c-5.514 0-10 4.486-10 10s4.486 10 10 10 10-4.486 10-10-4.486-10-10-10m0 22c-6.617 0-12-5.383-12-12s5.383-12 12-12 12 5.383 12 12-5.383 12-12 12"/><path d="m44.0001 43c-2.757 0-5 2.243-5 5s2.243 5 5 5 5-2.243 5-5-2.243-5-5-5m0 12c-3.859 0-7-3.141-7-7s3.141-7 7-7 7 3.141 7 7-3.141 7-7 7"/><path d="m1.504 26.8643-1.008-1.729 24-14 1.008 1.729z"/><path d="m1.5108 53.8594-1.021-1.719 32-19 1.021 1.719z"/><path d="m32.7579 34.9697-32-8 .484-1.939 32 8z"/><path d="m10.5196 28.8545-1.039-1.709 23-14 1.039 1.709z"/><path d="m18.5147 30.8574-1.029-1.715 15-9 1.029 1.715z"/><path d="m26.4962 32.8682-.992-1.736 7-4 .992 1.736z"/><path d="m24.7198 39.96-24-7 .561-1.92 24 7z"/><path d="m16.7022 43.9541-16-5 .596-1.908 16 5z"/><path d="m8.6485 48.9365-8-3 .703-1.873 8 3z"/><path d="m2.502 59.8652-1.004-1.73 31-18 1.004 1.73z"/><path d="m14.501 59.8652-1.002-1.73 19-11 1.002 1.73z"/><path d="m1.5245 20.8516-1.049-1.703 13-8 1.049 1.703z"/></g></svg>