<svg enable-background="new 0 0 49.8 57" viewBox="0 0 49.8 57" xmlns="http://www.w3.org/2000/svg"><path clip-rule="evenodd" d="m48.9.1c-.2-.1-.5-.1-.8 0l-16.5 8.6c-.1.1-.3.2-.3.3-.4.8.1 1.6 2 3.1l-19.6 25.8-.1.1c-.5.8-.6 2.3 1.5 4.6.3.4.8.8 1.2 1.2-.4 1-1.8 3.3-3.7 3.8-1.2.3-2.5-.1-3.8-1.3-2.1-1.6-3.5-4-3.9-6.6l2.5.6h.2c.5 0 .8-.4.8-.8 0-.1-.1-.3-.1-.4l-1-2.7.7-3c.1-.3 0-.6-.3-.8-.2-.2-.6-.3-.8-.1l-2.9 1-3-.7c-.3-.1-.6 0-.8.3-.2.2-.3.6-.1.8l1 2.9-.7 3c-.1.3 0 .6.3.8.1.1.3.2.5.2.1 0 .2 0 .3-.1l1.7-.6c.4 3 2 5.7 4.4 7.6 1.1 1.1 2.6 1.7 4.1 1.8.4 0 .8-.1 1.2-.1 2.5-.7 4-3.1 4.6-4.3 1.2.9 2.4 1.7 3.6 2.5.3.2.6.3.8.4l-3.6 6.1c-.1.2-.1.4-.1.6.1.2.2.4.4.5l2.9 1.7c.1.1.3.1.4.1.3 0 .6-.2.7-.4l3.9-6.8c1.2.4 2.5.7 3.8.7 1.1.1 2.1-.3 2.7-1.2 0 0 0-.1.1-.1l12.9-29.5c.8.4 1.7.7 2.6.7.4 0 .9-.2 1.1-.5.1-.1.1-.3.1-.5l-.5-18.6c0-.3-.2-.6-.4-.7zm-46.5 38.5.4-1.8c0-.1 0-.3 0-.4l-.6-1.6 1.8.4h.5l1.7-.6-.4 1.8v.5l.6 1.7-1.8-.4c-.2 0-.3 0-.5 0zm42.5-20.3-13.2 30.3c-.4.3-.8.5-1.3.4-2 0-5.2-1.1-8.3-3-2.1-1.2-4-2.7-5.7-4.4-1.2-1.4-1.5-2.3-1.3-2.7l20-26.3c.3-.4.2-.9-.1-1.2-.6-.5-1.3-1-1.8-1.6l14.6-7.7.5 16.6c-.8-.2-1.6-.5-2.3-.8-.5-.2-.9 0-1.1.4zm-23.2 36.6-1.4-.8 3.2-5.5c.5.3 1 .5 1.6.7zm9.1-31-9 13c-.2.4-.2.9.2 1.1.1.1.3.1.4.1.3 0 .5-.1.7-.3l9-13c.2-.4.2-.8-.2-1.1-.3-.3-.8-.2-1.1.2z" fill="#2d3a69" fill-rule="evenodd"/></svg>