<svg enable-background="new 0 0 30 49" viewBox="0 0 30 49" xmlns="http://www.w3.org/2000/svg"><path clip-rule="evenodd" d="m19.6 30.5v-1.6c3.7-1.7 6-5.4 6-9.5v-4.4c2.4-1.6 3.9-4.3 3.9-7.2 0-.3-.1-.6-.4-.7-.3-.4-.9-.5-1.3-.2-.2.2-.4.4-.4.7 0 .2 0 .4-.1.6s-.2.3-.3.4c-.2.1-.4.2-.6.2-.1 0-.1 0-.2 0-.3 0-.6-.1-.8-.4-.1-.1-.1-.2-.2-.3 0-.1 0-.1 0-.2-1-4.6-5.2-7.9-10-7.9h-.1c-5.7 0-10.4 4.7-10.4 10.5v9c0 3.9 2.2 7.5 5.7 9.3v1.7c-6 1.9-10.1 7.3-10.4 13.6v.7c0 .4.2.7.6.8 2.1 1 4.5 1.4 6.8 1.4h16c2 0 4-.3 5.9-1 .4-.1.6-.5.6-.9v-.4c.1-6.4-4.1-12.2-10.3-14.2z" fill="#fff" fill-rule="evenodd"/><path d="m3 43h24c1.7 0 3 1.3 3 3 0 1.7-1.3 3-3 3h-24c-1.7 0-3-1.3-3-3 0-1.7 1.3-3 3-3z" fill="#9cd9f3"/><path clip-rule="evenodd" d="m19.6 30.5v-1.6c3.7-1.7 6-5.4 6-9.5v-4.4c2.4-1.6 3.9-4.3 3.9-7.2 0-.3-.1-.6-.4-.7-.3-.4-.9-.5-1.3-.2-.2.2-.4.4-.4.7 0 .2 0 .4-.1.6s-.2.3-.3.4c-.2.1-.4.2-.6.2-.1 0-.1 0-.2 0-.3 0-.6-.1-.8-.4-.1-.1-.1-.2-.2-.3 0-.1 0-.1 0-.2-1-4.6-5.2-7.9-10-7.9h-.1c-5.7 0-10.4 4.7-10.4 10.5v9c0 3.9 2.2 7.5 5.7 9.3v1.7c-6 1.9-10.1 7.3-10.4 13.6v.7c0 .4.2.7.6.8 2.1 1 4.5 1.4 6.8 1.4h16c2 0 4-.3 5.9-1 .4-.1.6-.5.6-.9v-.4c.1-6.4-4.1-12.2-10.3-14.2zm-4.5-28.7c4.3 0 7.9 3 8.5 7.2.2.4.4.7.7 1 .6.5 1.3.8 2 .8.2 0 .5 0 .7-.1-1.1 2.3-3.5 3.8-6 3.8h-7.2c-3.7 0-6.7-3-6.7-6.7 0-.1 0-.1 0-.2 1.1-3.4 4.4-5.7 8-5.8zm-8.5 17.6v-7c1.6 2.5 4.3 4 7.2 4h7.2c1 0 1.9-.2 2.8-.5v3.5c0 4.7-3.8 8.6-8.6 8.6h-.1c-4.7 0-8.5-3.8-8.5-8.6zm11.1 10.2v1.1c0 1.5-1.2 2.7-2.7 2.7-1.5 0-2.7-1.2-2.7-2.7v-1.2c.9.3 1.9.4 2.9.4h.1c.8 0 1.6-.1 2.4-.3zm5.7 15.6h-16c-1.9 0-3.8-.3-5.6-1 .2-5.4 3.8-10.1 8.9-11.8.7 1.8 2.4 3 4.3 3 1.9 0 3.6-1.2 4.3-3 5.2 1.8 8.7 6.6 8.9 12.1-1.6.4-3.2.7-4.8.7zm-8.1-2.8c-.2 0-.5.1-.6.3-.4.4-.4.9 0 1.3s.9.4 1.3 0c.4-.4.4-.9 0-1.3-.2-.3-.4-.3-.7-.3zm0-2.9c-.2 0-.5.1-.6.3-.4.4-.4.9 0 1.3s.9.4 1.3 0c.2-.2.3-.4.3-.6s-.1-.5-.3-.7c-.2-.3-.4-.4-.7-.3zm0-3c-.2 0-.5.1-.6.3-.4.4-.4.9 0 1.3s.9.4 1.3 0c.2-.2.3-.4.3-.6s-.1-.5-.3-.7-.4-.3-.7-.3z" fill="#2d3a69" fill-rule="evenodd"/></svg>