<svg height="60" viewBox="0 0 60 60" width="60" xmlns="http://www.w3.org/2000/svg"><g fill="#fff"><path d="m30.0001 2c-10.477 0-19 8.523-19 19s8.523 19 19 19 19-8.523 19-19-8.523-19-19-19m0 40c-11.579 0-21-9.421-21-21s9.421-21 21-21 21 9.421 21 21-9.421 21-21 21"/><path d="m7.0001 35c-2.757 0-5 2.243-5 5s2.243 5 5 5 5-2.243 5-5-2.243-5-5-5m0 12c-3.859 0-7-3.141-7-7s3.141-7 7-7 7 3.141 7 7-3.141 7-7 7"/><path d="m59.0001 60c-.109 0-.22-.018-.328-.056l-46-16c-.523-.181-.798-.751-.616-1.272.181-.522.755-.797 1.272-.616l46 16c.523.181.798.751.616 1.272-.143.413-.53.672-.944.672"/><path d="m5.0001 42c-.553 0-1-.447-1-1 0-2.206 1.794-4 4-4 .553 0 1 .447 1 1s-.447 1-1 1c-1.103 0-2 .897-2 2 0 .553-.447 1-1 1"/><path d="m53.0001 35c-2.757 0-5 2.243-5 5s2.243 5 5 5 5-2.243 5-5-2.243-5-5-5m0 12c-3.859 0-7-3.141-7-7s3.141-7 7-7 7 3.141 7 7-3.141 7-7 7"/><path d="m51.0001 42c-.553 0-1-.447-1-1 0-2.206 1.794-4 4-4 .553 0 1 .447 1 1s-.447 1-1 1c-1.103 0-2 .897-2 2 0 .553-.447 1-1 1"/><path d="m1.0001 60c-.414 0-.801-.259-.944-.672-.182-.521.093-1.091.616-1.272l46-16c.518-.182 1.091.094 1.272.616.182.521-.093 1.091-.616 1.272l-46 16c-.108.038-.219.056-.328.056"/><path d="m15.8594 14.8535-1.041-1.707 19.661-12 1.041 1.707z"/><path d="m19.459 38.8887-.918-1.777 31-16 .918 1.777z"/><path d="m49.7696 22.9727-38-9 .461-1.945 38 9z"/><path d="m24.543 16.8398-1.086-1.68 17-11 1.086 1.68z"/><path d="m32.5255 18.8506-1.051-1.701 14-8.64 1.051 1.701z"/><path d="m39.6885 20.3164-.971-1.748 9.797-5.442.971 1.748z"/><path d="m41.212 26.9668-30.466-8 .508-1.934 30.466 8z"/><path d="m33.6133 31.2441-23.879-7.906.629-1.899 23.879 7.907z"/><path d="m25.6641 34.9414-14-5 .672-1.883 14 5z"/><path d="m25.6221 41.3076-.895-1.789 23.253-11.627.895 1.789z"/></g></svg>