<svg height="64" viewBox="0 0 64 64" width="64" xmlns="http://www.w3.org/2000/svg"><g fill="none" fill-rule="evenodd" transform="translate(1)"><path d="m22 22-3.16-6.772c-1.789-3.834 1.009-8.228 5.24-8.228h.558c2.582 0 4.851 1.712 5.56 4.194l.802 2.806.802-2.806c.709-2.482 2.978-4.194 5.56-4.194 4.366 0 7.157 4.652 5.102 8.504l-3.464 6.496z" stroke="#fff" stroke-linejoin="round" stroke-width="2"/><path d="m24 0v7" stroke="#fff" stroke-linejoin="round" stroke-width="2"/><path d="m38 0v7" stroke="#fff" stroke-linejoin="round" stroke-width="2"/><path d="m62 61c-2.587 0-2.587 2-5.173 2s-2.587-2-5.173-2c-2.585 0-2.585 2-5.17 2-2.583 0-2.583-2-5.165-2-2.584 0-2.584 2-5.168 2-2.583 0-2.583-2-5.167-2-2.583 0-2.583 2-5.167 2-2.583 0-2.583-2-5.167-2-2.582 0-2.582 2-5.164 2-2.581 0-2.581-2-5.162-2-2.582 0-2.582 2-5.165 2-2.579 0-2.579-2-5.159-2l22-35h17z" stroke="#fff" stroke-linejoin="round" stroke-width="2"/><path d="m22 22h17v4h-17z" stroke="#fff" stroke-linejoin="round" stroke-width="2"/><path d="m9 47c2.749 0 2.749 2 5.498 2s2.749-2 5.498-2 2.749 2 5.498 2c2.75 0 2.75-2 5.499-2 2.748 0 2.748 2 5.496 2 2.751 0 2.751-2 5.501-2 2.752 0 2.752 2 5.505 2 2.752 0 2.752-2 5.505-2" stroke="#fff" stroke-linejoin="round" stroke-width="2"/><g fill="#fff" fill-rule="nonzero"><circle cx="31" cy="57" r="1"/><circle cx="36" cy="57" r="1"/><circle cx="41" cy="57" r="1"/><circle cx="46" cy="57" r="1"/><circle cx="51" cy="57" r="1"/><circle cx="56" cy="57" r="1"/><circle cx="6" cy="57" r="1"/><circle cx="11" cy="57" r="1"/><circle cx="16" cy="57" r="1"/><circle cx="21" cy="57" r="1"/><circle cx="26" cy="57" r="1"/><circle cx="31" cy="43" r="1"/><circle cx="36" cy="43" r="1"/><circle cx="41" cy="43" r="1"/><circle cx="46" cy="43" r="1"/><circle cx="16" cy="43" r="1"/><circle cx="21" cy="43" r="1"/><circle cx="26" cy="43" r="1"/></g></g></svg>