<svg enable-background="new 0 0 40 42" viewBox="0 0 40 42" xmlns="http://www.w3.org/2000/svg"><g transform="translate(-1)"><path d="m10 36h21c1.7 0 3 1.3 3 3 0 1.7-1.3 3-3 3h-21c-1.7 0-3-1.3-3-3 0-1.7 1.3-3 3-3z" fill="#e3ded8"/><g clip-rule="evenodd" fill-rule="evenodd"><path d="m21 0c-9.5 0-17.8 6.7-19.6 16.1s3.1 18.7 12 22.4c8.8 3.7 19 .6 24.3-7.4s4.3-18.5-2.5-25.3c-3.8-3.7-8.9-5.8-14.2-5.8z" fill="#fdfdfd"/><path d="m21 0c-9.5 0-17.8 6.7-19.6 16.1s3.1 18.7 12 22.4c8.8 3.7 19 .6 24.3-7.4s4.3-18.5-2.5-25.3c-3.8-3.7-8.9-5.8-14.2-5.8zm0 4c-6.5 0-12.3 3.9-14.8 9.9s-1.1 12.8 3.5 17.4 11.4 5.9 17.4 3.5 9.9-8.3 9.9-14.8c0-8.8-7.2-16-16-16zm0 30.5c-5.9 0-11.2-3.5-13.4-9s-1-11.7 3.1-15.8 10.4-5.4 15.8-3.2 9 7.5 9 13.4c0 8.1-6.5 14.6-14.5 14.6zm0 4c-7.5 0-14.3-4.5-17.1-11.4s-1.3-14.9 4-20.2 13.3-6.9 20.2-4 11.4 9.6 11.4 17.1c0 10.2-8.3 18.5-18.5 18.5zm0-27.8c.4 0 .7-.3.7-.7v-2c0-.3-.1-.5-.4-.7-.2-.1-.5-.1-.7 0s-.4.4-.4.7v2c0 .2.1.4.2.5.2.1.4.2.6.2zm0 18.6c-.2 0-.4.1-.5.2s-.2.3-.2.5v2c0 .3.1.5.4.7.2.1.5.1.7 0s.4-.4.4-.7v-2c-.1-.3-.4-.7-.8-.7zm9.3-9.3c0 .4.3.7.7.7h2c.4 0 .7-.3.7-.7s-.3-.7-.7-.7h-2c-.2 0-.4.1-.5.2s-.2.3-.2.5zm-19.4-.7h-1.9c-.4 0-.7.3-.7.7s.3.7.7.7h2c.3 0 .5-.1.7-.4.1-.2.1-.5 0-.8s-.5-.2-.8-.2zm14.6-.1h-1.6c-.3-1.1-1.1-1.9-2.2-2.2v-2.8c0-.4-.3-.7-.7-.7s-.7.3-.7.7v2.8c-1.4.4-2.4 1.7-2.2 3.1s1.3 2.6 2.7 2.7c1.5.1 2.8-.8 3.1-2.2h1.6c.4 0 .7-.3.7-.7s-.3-.7-.7-.7zm-4.5 2.2c-.6 0-1.2-.4-1.4-.9s-.1-1.2.3-1.7c.4-.4 1.1-.6 1.7-.3.6.2.9.8.9 1.4 0 .9-.7 1.5-1.5 1.5z" fill="#2d3a69"/></g></g></svg>